<svg width="22" height="23" viewBox="0 0 22 23" fill="none" xmlns="http://www.w3.org/2000/svg">
<path opacity="0.5" d="M19.25 15.5216V10.0216C19.25 7.42927 19.25 6.1331 18.4443 5.32735C17.7403 4.62335 16.6604 4.53444 14.6667 4.52344H7.33333C5.33958 4.53444 4.25975 4.62335 3.55575 5.32735C2.75 6.1331 2.75 7.42927 2.75 10.0216V15.5216C2.75 18.1149 2.75 19.411 3.55575 20.2168C4.36058 21.0216 5.65767 21.0216 8.25 21.0216H13.75C16.3423 21.0216 17.6394 21.0216 18.4443 20.2168C19.25 19.4101 19.25 18.1149 19.25 15.5216Z" fill="#9097A7"/>
<path d="M7.33398 4.07031C7.33398 3.70564 7.47885 3.3559 7.73671 3.09804C7.99457 2.84018 8.34431 2.69531 8.70898 2.69531H13.2923C13.657 2.69531 14.0067 2.84018 14.2646 3.09804C14.5225 3.3559 14.6673 3.70564 14.6673 4.07031V4.98698C14.6673 5.35165 14.5225 5.70139 14.2646 5.95925C14.0067 6.21711 13.657 6.36198 13.2923 6.36198H8.70898C8.34431 6.36198 7.99457 6.21711 7.73671 5.95925C7.47885 5.70139 7.33398 5.35165 7.33398 4.98698V4.07031Z" fill="#9097A7"/>
<path fill-rule="evenodd" clip-rule="evenodd" d="M5.72852 10.4844C5.72852 10.302 5.80095 10.1272 5.92988 9.99824C6.05881 9.86931 6.23368 9.79688 6.41602 9.79688H6.87435C7.05669 9.79688 7.23155 9.86931 7.36048 9.99824C7.48942 10.1272 7.56185 10.302 7.56185 10.4844C7.56185 10.6667 7.48942 10.8416 7.36048 10.9705C7.23155 11.0994 7.05669 11.1719 6.87435 11.1719H6.41602C6.23368 11.1719 6.05881 11.0994 5.92988 10.9705C5.80095 10.8416 5.72852 10.6667 5.72852 10.4844ZM8.93685 10.4844C8.93685 10.302 9.00928 10.1272 9.13821 9.99824C9.26714 9.86931 9.44201 9.79688 9.62435 9.79688H15.5827C15.765 9.79688 15.9399 9.86931 16.0688 9.99824C16.1978 10.1272 16.2702 10.302 16.2702 10.4844C16.2702 10.6667 16.1978 10.8416 16.0688 10.9705C15.9399 11.0994 15.765 11.1719 15.5827 11.1719H9.62435C9.44201 11.1719 9.26714 11.0994 9.13821 10.9705C9.00928 10.8416 8.93685 10.6667 8.93685 10.4844ZM5.72852 13.6927C5.72852 13.5104 5.80095 13.3355 5.92988 13.2066C6.05881 13.0776 6.23368 13.0052 6.41602 13.0052H6.87435C7.05669 13.0052 7.23155 13.0776 7.36048 13.2066C7.48942 13.3355 7.56185 13.5104 7.56185 13.6927C7.56185 13.875 7.48942 14.0499 7.36048 14.1788C7.23155 14.3078 7.05669 14.3802 6.87435 14.3802H6.41602C6.23368 14.3802 6.05881 14.3078 5.92988 14.1788C5.80095 14.0499 5.72852 13.875 5.72852 13.6927ZM8.93685 13.6927C8.93685 13.5104 9.00928 13.3355 9.13821 13.2066C9.26714 13.0776 9.44201 13.0052 9.62435 13.0052H15.5827C15.765 13.0052 15.9399 13.0776 16.0688 13.2066C16.1978 13.3355 16.2702 13.5104 16.2702 13.6927C16.2702 13.875 16.1978 14.0499 16.0688 14.1788C15.9399 14.3078 15.765 14.3802 15.5827 14.3802H9.62435C9.44201 14.3802 9.26714 14.3078 9.13821 14.1788C9.00928 14.0499 8.93685 13.875 8.93685 13.6927ZM5.72852 16.901C5.72852 16.7187 5.80095 16.5438 5.92988 16.4149C6.05881 16.286 6.23368 16.2135 6.41602 16.2135H6.87435C7.05669 16.2135 7.23155 16.286 7.36048 16.4149C7.48942 16.5438 7.56185 16.7187 7.56185 16.901C7.56185 17.0834 7.48942 17.2582 7.36048 17.3872C7.23155 17.5161 7.05669 17.5885 6.87435 17.5885H6.41602C6.23368 17.5885 6.05881 17.5161 5.92988 17.3872C5.80095 17.2582 5.72852 17.0834 5.72852 16.901ZM8.93685 16.901C8.93685 16.7187 9.00928 16.5438 9.13821 16.4149C9.26714 16.286 9.44201 16.2135 9.62435 16.2135H15.5827C15.765 16.2135 15.9399 16.286 16.0688 16.4149C16.1978 16.5438 16.2702 16.7187 16.2702 16.901C16.2702 17.0834 16.1978 17.2582 16.0688 17.3872C15.9399 17.5161 15.765 17.5885 15.5827 17.5885H9.62435C9.44201 17.5885 9.26714 17.5161 9.13821 17.3872C9.00928 17.2582 8.93685 17.0834 8.93685 16.901Z" fill="#9097A7"/>
</svg>
