<svg width="22" height="22" viewBox="0 0 22 22" fill="none" xmlns="http://www.w3.org/2000/svg">
<path fill-rule="evenodd" clip-rule="evenodd" d="M10.9993 20.1693C6.94952 20.1693 3.66602 16.8271 3.66602 12.7049C3.66602 8.61469 6.00627 3.84069 9.65827 2.13477C10.078 1.93808 10.5358 1.83606 10.9993 1.83594V20.1693Z" fill="#9097A7"/>
<path opacity="0.3" d="M12.3411 2.13477C11.9214 1.93808 11.4635 1.83606 11 1.83594V8.2526L15.0627 4.18994C14.2716 3.32185 13.3577 2.6096 12.3402 2.13477" fill="#9097A7"/>
<path opacity="0.4" d="M11 8.25004V13.2917L17.0628 7.22888C16.5385 6.11054 15.8638 5.06829 15.0627 4.18738L11 8.25004Z" fill="#9097A7"/>
<path opacity="0.6" d="M11 17.8727L18.1601 10.7126C17.9511 9.50697 17.5821 8.33459 17.0628 7.22656L11 13.2894V17.8727Z" fill="#9097A7"/>
<path opacity="0.7" d="M18.1601 10.7188L11 17.8788V20.1705C15.0498 20.1705 18.3333 16.8283 18.3333 12.7061C18.3333 12.0553 18.2747 11.3879 18.1601 10.7188Z" fill="#9097A7"/>
</svg>
