<svg width="23" height="22" viewBox="0 0 23 22" fill="none" xmlns="http://www.w3.org/2000/svg">
<path opacity="0.5" d="M11.9355 14.1193C11.9355 12.2181 11.9355 11.2675 12.5396 10.6763C13.1437 10.085 14.1163 10.0859 16.0605 10.0859C18.0048 10.0859 18.9774 10.0859 19.5815 10.6763C20.1855 11.2684 20.1855 12.2181 20.1855 14.1193V16.1359C20.1855 18.0371 20.1855 18.9877 19.5815 19.5789C18.9774 20.1702 18.0048 20.1693 16.0605 20.1693C14.1163 20.1693 13.1437 20.1693 12.5396 19.5789C11.9355 18.9868 11.9355 18.0371 11.9355 16.1359V14.1193Z" fill="#9097A7"/>
<path d="M1.85352 7.88594C1.85352 9.78711 1.85352 10.7377 2.4576 11.3289C3.06168 11.9202 4.03427 11.9193 5.97852 11.9193C7.92277 11.9193 8.89535 11.9193 9.49943 11.3289C10.1035 10.7368 10.1035 9.78711 10.1035 7.88594V5.86927C10.1035 3.9681 10.1035 3.01752 9.49943 2.42627C8.89535 1.83502 7.92277 1.83594 5.97852 1.83594C4.03427 1.83594 3.06168 1.83594 2.4576 2.42627C1.85352 3.01844 1.85352 3.9681 1.85352 5.86927V7.88594ZM11.9368 5.04427C11.9368 4.04785 11.9368 3.5501 12.0936 3.15594C12.2984 2.63799 12.6997 2.22211 13.2101 1.9991C13.5887 1.83594 14.0699 1.83594 15.0306 1.83594H17.0931C18.0538 1.83594 18.535 1.83594 18.9136 1.9991C19.4187 2.21544 19.8211 2.6316 20.0301 3.15594C20.1868 3.5501 20.1868 4.04785 20.1868 5.04427C20.1868 6.04069 20.1868 6.53844 20.0301 6.9326C19.8253 7.45055 19.424 7.86643 18.9136 8.08944C18.535 8.2526 18.0538 8.2526 17.0931 8.2526H15.0306C14.0699 8.2526 13.5887 8.2526 13.2101 8.08944C12.6997 7.86643 12.2984 7.45055 12.0936 6.9326C11.9368 6.53844 11.9368 6.04069 11.9368 5.04427Z" fill="#9097A7"/>
<path opacity="0.5" d="M1.85352 16.9583C1.85352 17.9548 1.85352 18.4525 2.01027 18.8467C2.21503 19.3646 2.61641 19.7805 3.12677 20.0035C3.50535 20.1667 3.9866 20.1667 4.94727 20.1667H7.00977C7.97043 20.1667 8.45168 20.1667 8.83027 20.0035C9.33535 19.7872 9.73777 19.371 9.94677 18.8467C10.1035 18.4525 10.1035 17.9548 10.1035 16.9583C10.1035 15.9619 10.1035 15.4642 9.94677 15.07C9.74201 14.5521 9.34062 14.1362 8.83027 13.9132C8.45168 13.75 7.97043 13.75 7.00977 13.75H4.94727C3.9866 13.75 3.50535 13.75 3.12677 13.9132C2.62168 14.1295 2.21927 14.5457 2.01027 15.07C1.85352 15.4642 1.85352 15.9619 1.85352 16.9583Z" fill="#9097A7"/>
</svg>
