<svg width="18" height="20" viewBox="0 0 18 20" fill="none" xmlns="http://www.w3.org/2000/svg">
<path opacity="0.5" d="M15.7501 7V7.704C15.7501 8.549 15.9901 9.375 16.4421 10.078L17.5501 11.801C18.5611 13.375 17.7891 15.514 16.0301 16.011C11.4338 17.3127 6.56635 17.3127 1.97006 16.011C0.211062 15.514 -0.560938 13.375 0.450062 11.801L1.55806 10.078C2.01127 9.36919 2.25178 8.54531 2.25106 7.704V7C2.25106 3.134 5.27306 0 9.00006 0C12.7271 0 15.7501 3.134 15.7501 7Z" fill="#707793"/>
<path d="M9.74919 4C9.74919 3.80109 9.67017 3.61032 9.52952 3.46967C9.38886 3.32902 9.1981 3.25 8.99919 3.25C8.80028 3.25 8.60951 3.32902 8.46886 3.46967C8.32821 3.61032 8.24919 3.80109 8.24919 4V8C8.24919 8.19891 8.32821 8.38968 8.46886 8.53033C8.60951 8.67098 8.80028 8.75 8.99919 8.75C9.1981 8.75 9.38886 8.67098 9.52952 8.53033C9.67017 8.38968 9.74919 8.19891 9.74919 8V4ZM4.24219 16.545C4.56894 17.5491 5.20507 18.4241 6.05948 19.0445C6.91389 19.665 7.94275 19.9992 8.99869 19.9992C10.0546 19.9992 11.0835 19.665 11.9379 19.0445C12.7923 18.4241 13.4284 17.5491 13.7552 16.545C10.6102 17.135 7.38819 17.135 4.24219 16.545Z" fill="#707793"/>
</svg>
