<svg width="22" height="23" viewBox="0 0 22 23" fill="none" xmlns="http://www.w3.org/2000/svg">
<path opacity="0.5" d="M3.74274 11.7596C4.14515 9.6146 4.3459 8.54119 5.10949 7.90685C5.87399 7.27344 6.96482 7.27344 9.14832 7.27344H12.8517C15.0361 7.27344 16.1269 7.27344 16.8914 7.90685C17.655 8.54119 17.8557 9.61369 18.2582 11.7596L18.9457 15.4263C19.5112 18.4439 19.7945 19.9528 18.9695 20.9464C18.1445 21.9401 16.61 21.9401 13.5401 21.9401H8.46082C5.3909 21.9401 3.85549 21.9401 3.0314 20.9464C2.2064 19.9528 2.48965 18.4439 3.05524 15.4263L3.74274 11.7596Z" fill="#9097A7"/>
<path d="M8.9375 6.34375C8.9375 5.79674 9.1548 5.27214 9.54159 4.88534C9.92839 4.49855 10.453 4.28125 11 4.28125C11.547 4.28125 12.0716 4.49855 12.4584 4.88534C12.8452 5.27214 13.0625 5.79674 13.0625 6.34375V7.26042C13.5813 7.26042 14.036 7.26225 14.4375 7.27417V6.34375C14.4375 5.43207 14.0753 4.55773 13.4307 3.91307C12.786 3.26841 11.9117 2.90625 11 2.90625C10.0883 2.90625 9.21398 3.26841 8.56932 3.91307C7.92466 4.55773 7.5625 5.43207 7.5625 6.34375V7.27417C7.964 7.26225 8.41867 7.26042 8.9375 7.26042V6.34375ZM9.05483 15.295C9.19698 15.6975 9.46042 16.0459 9.80888 16.2924C10.1573 16.5389 10.5736 16.6712 11.0005 16.6712C11.4273 16.6712 11.8436 16.5389 12.192 16.2924C12.5405 16.0459 12.8039 15.6975 12.9461 15.295C12.9751 15.2085 13.021 15.1286 13.0812 15.0601C13.1414 14.9915 13.2146 14.9356 13.2966 14.8956C13.3786 14.8556 13.4677 14.8323 13.5588 14.8272C13.6499 14.822 13.7411 14.835 13.8271 14.8654C13.9131 14.8958 13.9922 14.943 14.0598 15.0043C14.1274 15.0656 14.1821 15.1397 14.2207 15.2224C14.2594 15.305 14.2812 15.3945 14.2849 15.4857C14.2886 15.5769 14.2741 15.6678 14.2422 15.7533C14.0052 16.4237 13.5662 17.0042 12.9857 17.4147C12.4051 17.8252 11.7115 18.0457 11.0005 18.0457C10.2894 18.0457 9.59583 17.8252 9.01526 17.4147C8.43469 17.0042 7.99567 16.4237 7.75867 15.7533C7.70132 15.5823 7.7135 15.3956 7.79256 15.2335C7.87162 15.0713 8.01124 14.9468 8.18131 14.8866C8.35137 14.8265 8.53826 14.8356 8.70167 14.912C8.86508 14.9884 8.99192 15.1259 9.05483 15.295Z" fill="#9097A7"/>
</svg>
