<svg width="27" height="27" viewBox="0 0 27 27" fill="none" xmlns="http://www.w3.org/2000/svg">
<path d="M8.35766 17.4703H20.8125V18.4885H6.93986L8.00639 15.327L5.98278 7.56602H5.97769L5.30824 5.00023H2.05518V3.98206H6.09478L6.89659 7.05694H24.0121L20.6165 15.8412H8.90748L8.35766 17.4703ZM11.2976 21.683C11.2976 22.8539 10.3456 23.8059 9.17475 23.8059C8.00385 23.8059 7.05186 22.8539 7.05186 21.683C7.05186 20.5121 8.00385 19.5601 9.17475 19.5601C10.3456 19.5601 11.2976 20.5121 11.2976 21.683ZM20.1048 21.683C20.1048 22.8539 19.1528 23.8059 17.9819 23.8059C16.811 23.8059 15.859 22.8539 15.859 21.683C15.859 20.5121 16.811 19.5601 17.9819 19.5601C19.1528 19.5601 20.1048 20.5121 20.1048 21.683Z" fill="url(#paint0_linear_3055_4549)"/>
<defs>
<linearGradient id="paint0_linear_3055_4549" x1="13.0336" y1="3.98206" x2="13.0336" y2="23.8059" gradientUnits="userSpaceOnUse">
<stop stop-color="#9097A7"/>
<stop offset="1" stop-color="#5B626E"/>
</linearGradient>
</defs>
</svg>
