<svg width="22" height="22" viewBox="0 0 22 22" fill="none" xmlns="http://www.w3.org/2000/svg">
<g clip-path="url(#clip0_3059_4802)">
<path d="M7.72639 17.248L4.44424 19.0383C4.25163 19.1433 4.07854 19.2724 3.91748 19.4131C5.83107 21.0266 8.30129 22 11.0002 22C13.6793 22 16.1337 21.0411 18.0419 19.4497C17.8659 19.3011 17.675 19.1674 17.4633 19.062L13.9487 17.3049C13.4945 17.0778 13.2077 16.6137 13.2077 16.1061V14.7271C13.3065 14.6146 13.4194 14.4702 13.5402 14.2996C14.0192 13.623 14.3816 12.8787 14.6327 12.0979C15.0835 11.9589 15.4156 11.5425 15.4156 11.0477V9.57581C15.4156 9.25203 15.2716 8.96271 15.0478 8.76015V6.63237C15.0478 6.63237 15.4849 3.32117 11.0007 3.32117C6.51639 3.32117 6.95348 6.63237 6.95348 6.63237V8.76015C6.72933 8.96271 6.58571 9.25203 6.58571 9.57581V11.0477C6.58571 11.4354 6.78952 11.7766 7.09461 11.9738C7.46239 13.5748 8.42541 14.7271 8.42541 14.7271V16.072C8.42499 16.5618 8.15684 17.0131 7.72639 17.248Z" fill="#E7ECED"/>
<path d="M11.188 0.00163803C5.11394 -0.102136 0.105413 4.73786 0.00163911 10.8119C-0.0573043 14.256 1.47771 17.3513 3.92179 19.4098C4.0816 19.2703 4.25304 19.1425 4.44356 19.0387L7.72571 17.2484C8.15617 17.0135 8.42432 16.5622 8.42432 16.0716V14.7267C8.42432 14.7267 7.46088 13.5744 7.09353 11.9734C6.78885 11.7762 6.58462 11.4354 6.58462 11.0473V9.57537C6.58462 9.2516 6.72866 8.96228 6.95239 8.75971V6.63194C6.95239 6.63194 6.5153 3.32073 10.9996 3.32073C15.4838 3.32073 15.0467 6.63194 15.0467 6.63194V8.75971C15.2709 8.96228 15.4145 9.2516 15.4145 9.57537V11.0473C15.4145 11.5421 15.0824 11.9584 14.6316 12.0975C14.3805 12.8783 14.0181 13.6225 13.5391 14.2991C13.4183 14.4698 13.3054 14.6142 13.2066 14.7267V16.1056C13.2066 16.6133 13.4935 17.0778 13.9476 17.3044L17.4622 19.0615C17.673 19.167 17.8636 19.3002 18.0391 19.4484C20.4093 17.4717 21.9406 14.5162 21.9975 11.188C22.1021 5.11394 17.2625 0.105412 11.188 0.00163803Z" fill="#556080"/>
</g>
<defs>
<clipPath id="clip0_3059_4802">
<rect width="22" height="22" fill="white"/>
</clipPath>
</defs>
</svg>
