<svg width="22" height="22" viewBox="0 0 22 22" fill="none" xmlns="http://www.w3.org/2000/svg">
<path opacity="0.5" d="M12.4939 18.7686L11.9971 19.6083C11.5543 20.3563 10.4479 20.3563 10.0042 19.6083L9.5074 18.7686C9.1224 18.1178 8.9299 17.7914 8.62007 17.6118C8.31023 17.4312 7.92065 17.4248 7.14148 17.411C5.99015 17.3918 5.26873 17.3212 4.66373 17.07C4.10765 16.8397 3.60239 16.5021 3.17678 16.0765C2.75118 15.6509 2.41357 15.1456 2.18323 14.5895C1.83398 13.748 1.83398 12.6801 1.83398 10.5443V9.6276C1.83398 6.62735 1.83398 5.12677 2.50957 4.02494C2.88727 3.4082 3.40556 2.8896 4.02207 2.51152C5.12482 1.83594 6.62632 1.83594 9.62565 1.83594H12.3757C15.3759 1.83594 16.8765 1.83594 17.9792 2.51152C18.5956 2.88934 19.1139 3.40762 19.4917 4.02402C20.1673 5.12677 20.1673 6.62827 20.1673 9.6276V10.5443C20.1673 12.6801 20.1673 13.748 19.819 14.5895C19.5885 15.1457 19.2508 15.651 18.825 16.0766C18.3993 16.5022 17.8938 16.8398 17.3376 17.07C16.7326 17.3212 16.0112 17.3909 14.8598 17.411C14.0807 17.4248 13.6911 17.4312 13.3812 17.6118C13.0714 17.7914 12.8789 18.1169 12.4939 18.7686Z" fill="#9097A7"/>
<path d="M10.0742 13.113C8.85775 12.2165 6.875 10.5097 6.875 8.90277C6.875 6.44885 9.14375 5.53219 11 7.42785C12.8563 5.53219 15.125 6.44885 15.125 8.90277C15.125 10.5088 13.1423 12.2165 11.9258 13.113C11.5097 13.4201 11.3016 13.5732 11 13.5732C10.6984 13.5732 10.4903 13.4201 10.0742 13.113Z" fill="#9097A7"/>
</svg>
