<svg width="22" height="23" viewBox="0 0 22 23" fill="none" xmlns="http://www.w3.org/2000/svg">
<path opacity="0.5" fill-rule="evenodd" clip-rule="evenodd" d="M13.0894 2.83465C12.7502 2.69531 12.3194 2.69531 11.4586 2.69531C10.5979 2.69531 10.168 2.69531 9.82787 2.83465C9.6041 2.92608 9.40063 3.06086 9.22915 3.23124C9.05767 3.40161 8.92158 3.60422 8.82871 3.8274C8.74254 4.03181 8.70954 4.27106 8.69579 4.61848C8.68925 4.8701 8.61885 5.11594 8.49122 5.33289C8.36358 5.54984 8.18289 5.73078 7.96612 5.85873C7.74497 5.98166 7.49637 6.04678 7.24335 6.04806C6.99034 6.04934 6.74109 5.98674 6.51871 5.86606C6.20887 5.7029 5.98429 5.61306 5.76246 5.58373C5.27716 5.52041 4.78645 5.65083 4.39662 5.94673C4.10512 6.16856 3.88971 6.5389 3.45979 7.27865C3.02896 8.0184 2.81446 8.38781 2.76587 8.7499C2.70171 9.23206 2.83371 9.71973 3.13254 10.1056C3.26821 10.2816 3.45979 10.4292 3.75587 10.6144C4.19312 10.8866 4.47362 11.3505 4.47362 11.862C4.47362 12.3735 4.19312 12.8373 3.75679 13.1086C3.45979 13.2947 3.26821 13.4423 3.13162 13.6183C2.98456 13.8092 2.87656 14.0272 2.8138 14.2598C2.75104 14.4924 2.73476 14.7351 2.76587 14.9741C2.81446 15.3352 3.02896 15.7056 3.45979 16.4453C3.89062 17.1851 4.10512 17.5545 4.39662 17.7772C4.78529 18.0733 5.27662 18.2035 5.76246 18.1402C5.98429 18.1109 6.20887 18.0211 6.51871 17.8579C6.7412 17.7371 6.99062 17.6744 7.24381 17.6756C7.49701 17.6769 7.74578 17.7421 7.96704 17.8652C8.41254 18.1219 8.67654 18.594 8.69579 19.1055C8.70954 19.4538 8.74254 19.6921 8.82871 19.8966C9.01571 20.3457 9.37504 20.7032 9.82787 20.8893C10.167 21.0286 10.5979 21.0286 11.4586 21.0286C12.3194 21.0286 12.7502 21.0286 13.0894 20.8893C13.3131 20.7979 13.5166 20.6631 13.6881 20.4927C13.8596 20.3223 13.9957 20.1197 14.0885 19.8966C14.1747 19.6921 14.2077 19.4538 14.2215 19.1055C14.2398 18.594 14.5047 18.121 14.9511 17.8652C15.1723 17.7423 15.4209 17.6772 15.6739 17.6759C15.9269 17.6746 16.1762 17.7372 16.3985 17.8579C16.7084 18.0211 16.933 18.1109 17.1548 18.1402C17.6406 18.2044 18.132 18.0733 18.5206 17.7772C18.8121 17.5554 19.0275 17.1851 19.4575 16.4453C19.8883 15.7056 20.1028 15.3361 20.1514 14.9741C20.1824 14.7351 20.1659 14.4923 20.103 14.2597C20.0401 14.0271 19.9319 13.8091 19.7847 13.6183C19.649 13.4423 19.4575 13.2947 19.1614 13.1096C18.7241 12.8373 18.4436 12.3735 18.4436 11.862C18.4436 11.3505 18.7241 10.8866 19.1605 10.6153C19.4575 10.4292 19.649 10.2816 19.7856 10.1056C19.9327 9.91478 20.0407 9.69681 20.1034 9.46418C20.1662 9.23155 20.1825 8.98883 20.1514 8.7499C20.1028 8.38873 19.8883 8.0184 19.4575 7.27865C19.0266 6.5389 18.8121 6.16948 18.5206 5.94673C18.1308 5.65083 17.6401 5.52041 17.1548 5.58373C16.933 5.61306 16.7084 5.7029 16.3985 5.86606C16.176 5.98691 15.9266 6.04959 15.6734 6.04831C15.4202 6.04703 15.1715 5.98182 14.9502 5.85873C14.7336 5.73067 14.5531 5.54968 14.4256 5.33273C14.2982 5.11579 14.2279 4.87002 14.2215 4.61848C14.2077 4.27015 14.1747 4.03181 14.0885 3.8274C13.9957 3.60422 13.8596 3.40161 13.6881 3.23124C13.5166 3.06086 13.3131 2.92608 13.0894 2.83465Z" fill="#9097A7"/>
<path d="M14.2297 11.8594C14.2297 13.3783 12.9885 14.6094 11.4586 14.6094C9.92867 14.6094 8.6875 13.3783 8.6875 11.8594C8.6875 10.3405 9.92775 9.10938 11.4586 9.10938C12.9894 9.10938 14.2297 10.3405 14.2297 11.8594Z" fill="#9097A7"/>
</svg>
