<svg width="22" height="22" viewBox="0 0 22 22" fill="none" xmlns="http://www.w3.org/2000/svg">
<path d="M21.9794 7.39613L20.735 2.41587C20.5824 1.804 20.0324 1.375 19.4012 1.375H2.60013C1.969 1.375 1.419 1.804 1.265 2.41587L0.020625 7.39613C0.006875 7.44975 0 7.50612 0 7.5625C0 9.45725 1.46438 11 3.26562 11C4.312 11 5.24563 10.4789 5.84375 9.67037C6.44187 10.4789 7.3755 11 8.42188 11C9.46825 11 10.4019 10.4789 11 9.67037C11.5981 10.4789 12.5304 11 13.5781 11C14.6259 11 15.5581 10.4789 16.1562 9.67037C16.7544 10.4789 17.6866 11 18.7344 11C20.5356 11 22 9.45725 22 7.5625C22 7.50612 21.9931 7.44975 21.9794 7.39613Z" fill="#5D7186"/>
<path d="M18.7344 12.375C17.798 12.375 16.9084 12.089 16.1562 11.5665C14.652 12.6129 12.5042 12.6129 11 11.5665C9.49575 12.6129 7.348 12.6129 5.84375 11.5665C5.09163 12.089 4.202 12.375 3.26562 12.375C2.5905 12.375 1.95388 12.2169 1.375 11.9474V19.25C1.375 20.009 1.991 20.625 2.75 20.625H8.25V15.125H13.75V20.625H19.25C20.009 20.625 20.625 20.009 20.625 19.25V11.9474C20.0461 12.2169 19.4095 12.375 18.7344 12.375Z" fill="#9097A7"/>
</svg>
