<svg width="22" height="23" viewBox="0 0 22 23" fill="none" xmlns="http://www.w3.org/2000/svg">
<path d="M20.0202 6.15234H10.8535C10.6712 6.15234 10.4963 6.07991 10.3674 5.95098C10.2384 5.82205 10.166 5.64718 10.166 5.46484C10.166 5.28251 10.2384 5.10764 10.3674 4.97871C10.4963 4.84978 10.6712 4.77734 10.8535 4.77734H20.0202C20.2025 4.77734 20.3774 4.84978 20.5063 4.97871C20.6353 5.10764 20.7077 5.28251 20.7077 5.46484C20.7077 5.64718 20.6353 5.82205 20.5063 5.95098C20.3774 6.07991 20.2025 6.15234 20.0202 6.15234Z" fill="#5B626E"/>
<path d="M16.5 9.79688H11C10.8177 9.79688 10.6428 9.72444 10.5139 9.59551C10.3849 9.46658 10.3125 9.29171 10.3125 9.10938C10.3125 8.92704 10.3849 8.75217 10.5139 8.62324C10.6428 8.49431 10.8177 8.42188 11 8.42188H16.5C16.6823 8.42188 16.8572 8.49431 16.9861 8.62324C17.1151 8.75217 17.1875 8.92704 17.1875 9.10938C17.1875 9.29171 17.1151 9.46658 16.9861 9.59551C16.8572 9.72444 16.6823 9.79688 16.5 9.79688Z" fill="#5B626E"/>
<path d="M20.0202 15.1504H10.8535C10.6712 15.1504 10.4963 15.078 10.3674 14.949C10.2384 14.8201 10.166 14.6452 10.166 14.4629C10.166 14.2806 10.2384 14.1057 10.3674 13.9768C10.4963 13.8478 10.6712 13.7754 10.8535 13.7754H20.0202C20.2025 13.7754 20.3774 13.8478 20.5063 13.9768C20.6353 14.1057 20.7077 14.2806 20.7077 14.4629C20.7077 14.6452 20.6353 14.8201 20.5063 14.949C20.3774 15.078 20.2025 15.1504 20.0202 15.1504Z" fill="#9097A7"/>
<path d="M16.5 18.9635H11C10.8177 18.9635 10.6428 18.8911 10.5139 18.7621C10.3849 18.6332 10.3125 18.4583 10.3125 18.276C10.3125 18.0937 10.3849 17.9188 10.5139 17.7899C10.6428 17.6609 10.8177 17.5885 11 17.5885H16.5C16.6823 17.5885 16.8572 17.6609 16.9861 17.7899C17.1151 17.9188 17.1875 18.0937 17.1875 18.276C17.1875 18.4583 17.1151 18.6332 16.9861 18.7621C16.8572 18.8911 16.6823 18.9635 16.5 18.9635Z" fill="#9097A7"/>
<path d="M6.27083 3.85938H2.60417C1.71821 3.85938 1 4.57758 1 5.46354V9.13021C1 10.0162 1.71821 10.7344 2.60417 10.7344H6.27083C7.15679 10.7344 7.875 10.0162 7.875 9.13021V5.46354C7.875 4.57758 7.15679 3.85938 6.27083 3.85938Z" fill="#5B626E"/>
<path d="M6.27083 12.8594H2.60417C1.71821 12.8594 1 13.5776 1 14.4635V18.1302C1 19.0162 1.71821 19.7344 2.60417 19.7344H6.27083C7.15679 19.7344 7.875 19.0162 7.875 18.1302V14.4635C7.875 13.5776 7.15679 12.8594 6.27083 12.8594Z" fill="#9097A7"/>
</svg>
